<svg version="1" xmlns="http://www.w3.org/2000/svg" width="666.667" height="666.667" viewBox="0 0 500.000000 500.000000"><path d="M320.8 40.5c-.2.1-3.2.5-6.8.9-16.9 1.6-37.9 10.3-52 21.5-11 8.8-20 19.6-28 33.6-1.2 2.2-3.2 5.6-4.3 7.5-1 1.9-4.5 8-7.7 13.5s-6.7 11.6-7.8 13.5c-1.1 1.9-3.6 6.4-5.7 10-4.7 8.1-5.1 8.8-20.3 35.5-6.9 12.1-13.3 23.2-14.2 24.6-1 1.4-3 4.8-4.4 7.5-1.5 2.7-3.1 5.6-3.6 6.4-3.7 5.8-26 45.4-26 46 0 .5-.3 1-.7 1.2-.5.1-1.8 2.1-2.9 4.3-2.1 3.9-23.5 41.5-25.3 44.5-1.1 1.7-14.2 24.5-27.1 47-15.1 26.3-17 31.7-16.6 46.2.5 16.4 5.8 28.7 17 39.9 3.8 3.8 7.5 6.9 8.2 6.9.8 0 1.4.4 1.4.9 0 1.2 10.4 5.7 17.5 7.6 11.9 3.1 28.2 1.3 39.1-4.4 9-4.6 10.1-5.5 29.6-24.3 10.1-9.6 20.6-19.7 23.5-22.4 2.8-2.7 13.6-13 23.9-22.9 10.3-9.9 20.6-19.8 22.9-22 2.4-2.2 13.4-12.8 24.6-23.6 11.2-10.8 22-21.1 24-23 2-1.9 12.3-11.7 22.9-21.9 10.6-10.2 21.4-20.5 24-23 50.9-48.5 59-56.5 64.9-64.4 12.7-16.8 20.4-39.3 20.5-60.1.1-17-1.8-27.1-7.5-41.4-13.6-33.9-42.2-57.1-79-64.1-4.9-.9-23.4-2.1-24.1-1.5z"/></svg>